<?xml version="1.0" encoding="UTF-8" standalone="no"?>
<!DOCTYPE svg PUBLIC "-//W3C//DTD SVG 1.1//EN" "http://www.w3.org/Graphics/SVG/1.1/DTD/svg11.dtd">
<!-- Generated by Microsoft Visio, SVG Export hri_api_overview.svg api overview -->
<svg xmlns="http://www.w3.org/2000/svg" xmlns:xlink="http://www.w3.org/1999/xlink" xmlns:ev="http://www.w3.org/2001/xml-events"
		xmlns:v="http://schemas.microsoft.com/visio/2003/SVGExtensions/" width="11.6929in" height="8.26772in"
		viewBox="0 0 841.89 595.276" xml:space="preserve" color-interpolation-filters="sRGB" class="st16">
	<v:documentProperties v:langID="1033" v:metric="true" v:viewMarkup="false">
		<v:userDefs>
			<v:ud v:nameU="msvSubprocessMaster" v:prompt="" v:val="VT4(Rectangle)"/>
			<v:ud v:nameU="msvNoAutoConnect" v:val="VT0(1):26"/>
		</v:userDefs>
	</v:documentProperties>

	<style type="text/css">
	<![CDATA[
		.st1 {visibility:visible}
		.st2 {fill:#41719c;fill-opacity:0.25;filter:url(#filter_2);stroke:#41719c;stroke-opacity:0.25}
		.st3 {fill:url(#grad0-7);stroke:#2d5171;stroke-width:0.75}
		.st4 {fill:#feffff;font-family:Calibri;font-size:0.833336em}
		.st5 {fill:#ffffff;stroke:#41719c;stroke-dasharray:5.25,3.75;stroke-width:0.75}
		.st6 {fill:#41719c;font-family:Calibri;font-size:0.833336em}
		.st7 {fill:#70ad47;fill-opacity:0.22;filter:url(#filter_2);stroke:#70ad47;stroke-opacity:0.22}
		.st8 {fill:#70ad47;stroke:#c7c8c8;stroke-width:0.25}
		.st9 {font-size:1em}
		.st10 {fill:#ed7d31;fill-opacity:0.22;filter:url(#filter_2);stroke:#ed7d31;stroke-opacity:0.22}
		.st11 {fill:#ed7d31;stroke:#c7c8c8;stroke-width:0.25}
		.st12 {fill:none;filter:url(#filter_2);stroke:#5b9bd5;stroke-opacity:0.22}
		.st13 {stroke:#c7c8c8;stroke-width:0.25}
		.st14 {fill:none;stroke:none;stroke-width:0.25}
		.st15 {fill:#5b9bd5;font-family:Calibri;font-size:1.00001em}
		.st16 {fill:none;fill-rule:evenodd;font-size:12px;overflow:visible;stroke-linecap:square;stroke-miterlimit:3}
	]]>
	</style>

	<defs id="Patterns_And_Gradients">
		<linearGradient id="grad0-7" x1="0" y1="0" x2="1" y2="0" gradientTransform="rotate(250 0.5 0.5)">
			<stop offset="0" stop-color="#386288" stop-opacity="1"/>
			<stop offset="0.48" stop-color="#386288" stop-opacity="1"/>
			<stop offset="0.82" stop-color="#41719c" stop-opacity="1"/>
		</linearGradient>
	</defs>
	<defs id="Filters">
		<filter id="filter_2">
			<feGaussianBlur stdDeviation="2"/>
		</filter>
	</defs>
	<g v:mID="12" v:index="6" v:groupContext="foregroundPage">
		<v:userDefs>
			<v:ud v:nameU="msvThemeOrder" v:val="VT0(0):26"/>
		</v:userDefs>
		<title>api overview</title>
		<v:pageProperties v:drawingScale="0.0393701" v:pageScale="0.0393701" v:drawingUnits="24" v:shadowOffsetX="8.50394"
				v:shadowOffsetY="-8.50394"/>
		<g id="shape23-1" v:mID="23" v:groupContext="shape" transform="translate(165.05,-383.069)">
			<title>Rectangle.23</title>
			<desc>Robot instance</desc>
			<v:userDefs>
				<v:ud v:nameU="visVersion" v:val="VT0(15):26"/>
			</v:userDefs>
			<v:textBlock v:margins="rect(4,4,4,4)" v:tabSpace="42.5197"/>
			<v:textRect cx="113.845" cy="579.031" width="227.7" height="32.4896"/>
			<g id="shadow23-2" v:groupContext="shadow" v:shadowOffsetX="0.345598" v:shadowOffsetY="-1.97279" v:shadowType="1"
					transform="matrix(1,0,0,1,0.345598,1.97279)" class="st1">
				<rect x="0" y="562.786" width="227.691" height="32.4896" class="st2"/>
			</g>
			<rect x="0" y="562.786" width="227.691" height="32.4896" class="st3"/>
			<text x="83.4" y="582.03" class="st4" v:langID="5129"><v:paragraph v:horizAlign="1"/><v:tabList/>Robot instance</text>		</g>
		<g id="shape8-9" v:mID="8" v:groupContext="shape" transform="translate(165.05,-291.598)">
			<title>Rectangle.8</title>
			<desc>Standardised actionlib interface</desc>
			<v:userDefs>
				<v:ud v:nameU="visVersion" v:val="VT0(15):26"/>
			</v:userDefs>
			<v:textBlock v:margins="rect(4,4,4,4)" v:tabSpace="42.5197"/>
			<v:textRect cx="71.5748" cy="579.031" width="143.15" height="32.4896"/>
			<path d="M0 595.28 L143.15 595.28 L143.15 562.79 L0 562.79 L0 595.28 Z" class="st5"/>
			<text x="6.99" y="582.03" class="st6" v:langID="5129"><v:paragraph v:horizAlign="1"/><v:tabList/>Standardised actionlib interface</text>		</g>
		<g id="shape15-12" v:mID="15" v:groupContext="shape" transform="translate(315.213,-291.598)">
			<title>Rectangle.15</title>
			<desc>Perception synthesiser</desc>
			<v:userDefs>
				<v:ud v:nameU="visVersion" v:val="VT0(15):26"/>
			</v:userDefs>
			<v:textBlock v:margins="rect(4,4,4,4)" v:tabSpace="42.5197"/>
			<v:textRect cx="61.6535" cy="579.031" width="123.31" height="32.4896"/>
			<path d="M0 595.28 L123.31 595.28 L123.31 562.79 L0 562.79 L0 595.28 Z" class="st5"/>
			<text x="15.47" y="582.03" class="st6" v:langID="5129"><v:paragraph v:horizAlign="1"/><v:tabList/>Perception synthesiser</text>		</g>
		<g id="shape16-15" v:mID="16" v:groupContext="shape" transform="translate(445.606,-291.598)">
			<title>Rectangle.16</title>
			<desc>tf</desc>
			<v:userDefs>
				<v:ud v:nameU="visVersion" v:val="VT0(15):26"/>
			</v:userDefs>
			<v:textBlock v:margins="rect(4,4,4,4)" v:tabSpace="42.5197"/>
			<v:textRect cx="56.6929" cy="579.031" width="113.39" height="32.4896"/>
			<path d="M0 595.28 L113.39 595.28 L113.39 562.79 L0 562.79 L0 595.28 Z" class="st5"/>
			<text x="53.49" y="582.03" class="st6" v:langID="5129"><v:paragraph v:horizAlign="1"/><v:tabList/>tf</text>		</g>
		<g id="shape19-18" v:mID="19" v:groupContext="shape" transform="translate(400.252,-356.249)">
			<title>Rectangle.19</title>
			<desc>Query API</desc>
			<v:userDefs>
				<v:ud v:nameU="visVersion" v:val="VT0(15):26"/>
			</v:userDefs>
			<v:textBlock v:margins="rect(4,4,4,4)" v:tabSpace="42.5197"/>
			<v:textRect cx="79.3701" cy="584.646" width="158.75" height="21.2598"/>
			<g id="shadow19-19" v:groupContext="shadow" v:shadowOffsetX="0.345598" v:shadowOffsetY="-1.97279" v:shadowType="1"
					transform="matrix(1,0,0,1,0.345598,1.97279)" class="st1">
				<rect x="0" y="574.016" width="158.74" height="21.2598" class="st7"/>
			</g>
			<rect x="0" y="574.016" width="158.74" height="21.2598" class="st8"/>
			<text x="59.02" y="587.65" class="st4" v:langID="5129"><v:paragraph v:horizAlign="1"/><v:tabList/>Query API</text>		</g>
		<g id="shape20-24" v:mID="20" v:groupContext="shape" transform="translate(400.252,-328.885)">
			<title>Rectangle.20</title>
			<desc>World</desc>
			<v:userDefs>
				<v:ud v:nameU="visVersion" v:val="VT0(15):26"/>
			</v:userDefs>
			<v:textBlock v:margins="rect(4,4,4,4)" v:tabSpace="42.5197"/>
			<v:textRect cx="79.3701" cy="584.646" width="158.75" height="21.2598"/>
			<g id="shadow20-25" v:groupContext="shadow" v:shadowOffsetX="0.345598" v:shadowOffsetY="-1.97279" v:shadowType="1"
					transform="matrix(1,0,0,1,0.345598,1.97279)" class="st1">
				<rect x="0" y="574.016" width="158.74" height="21.2598" class="st7"/>
			</g>
			<rect x="0" y="574.016" width="158.74" height="21.2598" class="st8"/>
			<text x="66.77" y="587.65" class="st4" v:langID="5129"><v:paragraph v:horizAlign="1"/><v:tabList/>World</text>		</g>
		<g id="shape25-30" v:mID="25" v:groupContext="shape" transform="translate(400.252,-383.069)">
			<title>Rectangle.25</title>
			<desc>Person instances</desc>
			<v:userDefs>
				<v:ud v:nameU="visVersion" v:val="VT0(15):26"/>
			</v:userDefs>
			<v:textBlock v:margins="rect(4,4,4,4)" v:tabSpace="42.5197"/>
			<v:textRect cx="38.8209" cy="579.031" width="77.65" height="32.4896"/>
			<g id="shadow25-31" v:groupContext="shadow" v:shadowOffsetX="0.345598" v:shadowOffsetY="-1.97279" v:shadowType="1"
					transform="matrix(1,0,0,1,0.345598,1.97279)" class="st1">
				<rect x="0" y="562.786" width="77.6419" height="32.4896" class="st2"/>
			</g>
			<rect x="0" y="562.786" width="77.6419" height="32.4896" class="st3"/>
			<text x="4.67" y="582.03" class="st4" v:langID="5129"><v:paragraph v:horizAlign="1"/><v:tabList/>Person instances</text>		</g>
		<g id="shape27-37" v:mID="27" v:groupContext="shape" transform="translate(485.291,-383.069)">
			<title>Rectangle.27</title>
			<desc>Other entities</desc>
			<v:userDefs>
				<v:ud v:nameU="visVersion" v:val="VT0(15):26"/>
			</v:userDefs>
			<v:textBlock v:margins="rect(4,4,4,4)" v:tabSpace="42.5197"/>
			<v:textRect cx="36.8504" cy="579.031" width="73.71" height="32.4896"/>
			<g id="shadow27-38" v:groupContext="shadow" v:shadowOffsetX="0.345598" v:shadowOffsetY="-1.97279" v:shadowType="1"
					transform="matrix(1,0,0,1,0.345598,1.97279)" class="st1">
				<rect x="0" y="562.786" width="73.7008" height="32.4896" class="st2"/>
			</g>
			<rect x="0" y="562.786" width="73.7008" height="32.4896" class="st3"/>
			<text x="8.67" y="582.03" class="st4" v:langID="5129"><v:paragraph v:horizAlign="1"/><v:tabList/>Other entities</text>		</g>
		<g id="shape28-44" v:mID="28" v:groupContext="shape" transform="translate(315.213,-328.885)">
			<title>Rectangle.28</title>
			<desc>Communication callbacks e.g. listen</desc>
			<v:userDefs>
				<v:ud v:nameU="visVersion" v:val="VT0(15):26"/>
			</v:userDefs>
			<v:textBlock v:margins="rect(4,4,4,4)" v:tabSpace="42.5197"/>
			<v:textRect cx="38.8209" cy="570.963" width="77.65" height="48.6244"/>
			<g id="shadow28-45" v:groupContext="shadow" v:shadowOffsetX="0.345598" v:shadowOffsetY="-1.97279" v:shadowType="1"
					transform="matrix(1,0,0,1,0.345598,1.97279)" class="st1">
				<rect x="0" y="546.651" width="77.6419" height="48.6244" class="st7"/>
			</g>
			<rect x="0" y="546.651" width="77.6419" height="48.6244" class="st8"/>
			<text x="6.53" y="561.96" class="st4" v:langID="5129"><v:paragraph v:horizAlign="1"/><v:tabList/>Communication <tspan
						x="20.65" dy="1.2em" class="st9">callbacks<v:lf/></tspan><tspan x="19.28" dy="1.2em" class="st9">e</tspan>.g. listen</text>		</g>
		<g id="shape38-52" v:mID="38" v:groupContext="shape" transform="translate(165.05,-217.134)">
			<title>Rectangle.38</title>
			<desc>Vendor actionlib server implementations e.g. SayServer, GazeS...</desc>
			<v:userDefs>
				<v:ud v:nameU="visVersion" v:val="VT0(15):26"/>
			</v:userDefs>
			<v:textBlock v:margins="rect(4,4,4,4)" v:tabSpace="42.5197" v:verticalAlign="0"/>
			<v:textRect cx="71.5748" cy="560.851" width="143.15" height="68.849"/>
			<g id="shadow38-53" v:groupContext="shadow" v:shadowOffsetX="0.345598" v:shadowOffsetY="-1.97279" v:shadowType="1"
					transform="matrix(1,0,0,1,0.345598,1.97279)" class="st1">
				<rect x="0" y="526.427" width="143.15" height="68.849" class="st10"/>
			</g>
			<rect x="0" y="526.427" width="143.15" height="68.849" class="st11"/>
			<text x="24.16" y="539.43" class="st4" v:langID="5129"><v:paragraph v:horizAlign="1"/><v:tabList/>Vendor actionlib server <tspan
						x="36.95" dy="1.2em" class="st9">implementations<v:lf/><v:newlineChar/></tspan><tspan x="17.7" dy="2.4em"
						class="st9">e</tspan>.g. SayServer, GazeServer</text>		</g>
		<g id="shape39-60" v:mID="39" v:groupContext="shape" transform="translate(315.213,-217.134)">
			<title>Rectangle.39</title>
			<desc>Vendor perception algorithms e.g. Speech recognition, face tr...</desc>
			<v:userDefs>
				<v:ud v:nameU="visVersion" v:val="VT0(15):26"/>
			</v:userDefs>
			<v:textBlock v:margins="rect(4,4,4,4)" v:tabSpace="42.5197" v:verticalAlign="0"/>
			<v:textRect cx="121.89" cy="560.851" width="243.78" height="68.849"/>
			<g id="shadow39-61" v:groupContext="shadow" v:shadowOffsetX="0.345598" v:shadowOffsetY="-1.97279" v:shadowType="1"
					transform="matrix(1,0,0,1,0.345598,1.97279)" class="st1">
				<rect x="0" y="526.427" width="243.78" height="68.849" class="st10"/>
			</g>
			<rect x="0" y="526.427" width="243.78" height="68.849" class="st11"/>
			<text x="60.82" y="539.43" class="st4" v:langID="5129"><v:paragraph v:horizAlign="1"/><v:tabList/>Vendor perception algorithms<v:newlineChar/><v:lf/><v:lf/><tspan
						x="46.07" dy="3.6em" class="st9">e</tspan>.g. Speech recognition, face tracking</text>		</g>
		<g id="shape40-67" v:mID="40" v:groupContext="shape" transform="translate(165.05,-329.702)">
			<title>Rectangle.40</title>
			<desc>Actions e.g. say, gaze, expression &#38; gesture</desc>
			<v:userDefs>
				<v:ud v:nameU="visVersion" v:val="VT0(15):26"/>
			</v:userDefs>
			<v:textBlock v:margins="rect(4,4,4,4)" v:tabSpace="42.5197" v:verticalAlign="0"/>
			<v:textRect cx="71.5748" cy="571.372" width="143.15" height="47.8069"/>
			<g id="shadow40-68" v:groupContext="shadow" v:shadowOffsetX="0.345598" v:shadowOffsetY="-1.97279" v:shadowType="1"
					transform="matrix(1,0,0,1,0.345598,1.97279)" class="st1">
				<rect x="0" y="547.469" width="143.15" height="47.8069" class="st7"/>
			</g>
			<rect x="0" y="547.469" width="143.15" height="47.8069" class="st8"/>
			<text x="56.53" y="560.47" class="st4" v:langID="5129"><v:paragraph v:horizAlign="1"/><v:tabList/>Actions<v:lf/><tspan
						x="16.12" dy="1.2em" class="st9">e</tspan>.g. say, gaze, expression &#38; <tspan x="56.25" dy="1.2em"
						class="st9">gesture</tspan></text>		</g>
		<g id="shape41-75" v:mID="41" v:groupContext="shape" transform="translate(564.661,-330.52)">
			<title>Right Brace</title>
			<v:userDefs>
				<v:ud v:nameU="visVersion" v:prompt="" v:val="VT0(15):26"/>
			</v:userDefs>
			<g id="shadow41-76" v:groupContext="shadow" v:shadowOffsetX="0.345598" v:shadowOffsetY="-1.97279" v:shadowType="1"
					transform="matrix(1,0,0,1,0.345598,1.97279)" class="st1">
				<path d="M0 595.28 A37.9502 13.9941 -180 0 0 14.17 586.91 L14.17 553.46 L28.35 553.46 L14.17 553.46 L14.17 520.02
							 A37.9502 13.9941 -180 0 0 0 511.65" class="st12"/>
			</g>
			<path d="M0 595.28 A37.9502 13.9941 -180 0 0 14.17 586.91 L14.17 553.46 L28.35 553.46 L14.17 553.46 L14.17 520.02 A37.9502
						 13.9941 -180 0 0 0 511.65" class="st13"/>
		</g>
		<g id="shape43-83" v:mID="43" v:groupContext="shape" transform="translate(593.008,-362.331)">
			<title>Sheet.43</title>
			<desc>API</desc>
			<v:textBlock v:margins="rect(4,4,4,4)" v:tabSpace="42.5197"/>
			<v:textRect cx="13.0399" cy="585.276" width="26.08" height="20"/>
			<rect x="0" y="575.276" width="26.0799" height="20" class="st14"/>
			<text x="4" y="588.88" class="st15" v:langID="5129"><v:paragraph/><v:tabList/>API</text>		</g>
		<g id="shape44-86" v:mID="44" v:groupContext="shape" transform="translate(564.661,-218.551)">
			<title>Right Brace.44</title>
			<v:userDefs>
				<v:ud v:nameU="visVersion" v:prompt="" v:val="VT0(15):26"/>
			</v:userDefs>
			<g id="shadow44-87" v:groupContext="shadow" v:shadowOffsetX="0.345598" v:shadowOffsetY="-1.97279" v:shadowType="1"
					transform="matrix(1,0,0,1,0.345598,1.97279)" class="st1">
				<path d="M-0 595.28 A37.9502 17.3148 -180 0 0 14.17 584.93 L14.17 543.54 L28.35 543.54 L14.17 543.54 L14.17 502.16
							 A37.9502 17.3148 -180 0 0 0 491.81" class="st12"/>
			</g>
			<path d="M-0 595.28 A37.9502 17.3148 -180 0 0 14.17 584.93 L14.17 543.54 L28.35 543.54 L14.17 543.54 L14.17 502.16 A37.9502
						 17.3148 -180 0 0 0 491.81" class="st13"/>
		</g>
		<g id="shape45-94" v:mID="45" v:groupContext="shape" transform="translate(593.008,-254.366)">
			<title>Sheet.45</title>
			<desc>Frame-work</desc>
			<v:textBlock v:margins="rect(4,4,4,4)" v:tabSpace="42.5197"/>
			<v:textRect cx="21.5439" cy="579.031" width="43.09" height="32.4896"/>
			<rect x="0" y="562.786" width="43.0877" height="32.4896" class="st14"/>
			<text x="4" y="575.43" class="st15" v:langID="5129"><v:paragraph/><v:tabList/>Frame-<tspan x="4" dy="1.2em" class="st9">work</tspan></text>		</g>
	</g>
</svg>
